<svg id="Calque_1" data-name="Calque 1" xmlns="http://www.w3.org/2000/svg" viewBox="0 0 54.34 55.03"><title>logo</title><path d="M27.25,14.89a12.5,12.5,0,1,0,12.34,12.5,12.44,12.44,0,0,0-12.34-12.5" style="fill:#fff;fill-rule:evenodd;opacity:0.3580000102519989;isolation:isolate"/><path d="M27.17,40a12.5,12.5,0,1,1,12.34-12.5A12.44,12.44,0,0,1,27.17,40m0-40A27.34,27.34,0,0,0,0,27.51,27.34,27.34,0,0,0,27.17,55,27.34,27.34,0,0,0,54.34,27.51,27.34,27.34,0,0,0,27.17,0" style="fill:#2e2e2e;fill-rule:evenodd"/></svg>